<mxfile host="app.diagrams.net" modified="2021-07-27T07:36:49.709Z" agent="5.0 (Windows NT 10.0; Win64; x64) AppleWebKit/537.36 (KHTML, like Gecko) Chrome/93.0.4577.8 Safari/537.36" etag="RN7A1evkmEmnCZgb48e0" version="14.9.2" type="github">
  <diagram id="YC6umWNXfeDJtNruZ9RA" name="Page-1">
    <mxGraphModel dx="1038" dy="547" grid="1" gridSize="10" guides="1" tooltips="1" connect="1" arrows="1" fold="1" page="1" pageScale="1" pageWidth="827" pageHeight="1169" math="0" shadow="0">
      <root>
        <mxCell id="0" />
        <mxCell id="1" parent="0" />
        <mxCell id="1xpsHCLwSdXzNiefXys3-3" value="" style="edgeStyle=orthogonalEdgeStyle;rounded=0;orthogonalLoop=1;jettySize=auto;html=1;" edge="1" parent="1" source="1xpsHCLwSdXzNiefXys3-1" target="1xpsHCLwSdXzNiefXys3-2">
          <mxGeometry relative="1" as="geometry" />
        </mxCell>
        <mxCell id="1xpsHCLwSdXzNiefXys3-6" style="edgeStyle=orthogonalEdgeStyle;rounded=0;orthogonalLoop=1;jettySize=auto;html=1;" edge="1" parent="1" source="1xpsHCLwSdXzNiefXys3-1" target="1xpsHCLwSdXzNiefXys3-4">
          <mxGeometry relative="1" as="geometry" />
        </mxCell>
        <mxCell id="1xpsHCLwSdXzNiefXys3-1" value="小程序" style="rounded=1;whiteSpace=wrap;html=1;" vertex="1" parent="1">
          <mxGeometry x="340" y="160" width="120" height="60" as="geometry" />
        </mxCell>
        <mxCell id="1xpsHCLwSdXzNiefXys3-2" value="" style="rounded=1;whiteSpace=wrap;html=1;" vertex="1" parent="1">
          <mxGeometry x="250" y="300" width="120" height="60" as="geometry" />
        </mxCell>
        <mxCell id="1xpsHCLwSdXzNiefXys3-4" value="" style="rounded=1;whiteSpace=wrap;html=1;" vertex="1" parent="1">
          <mxGeometry x="414" y="300" width="120" height="60" as="geometry" />
        </mxCell>
      </root>
    </mxGraphModel>
  </diagram>
</mxfile>
